<svg width="57" height="56" viewBox="0 0 57 56" fill="none" xmlns="http://www.w3.org/2000/svg">
<g clip-path="url(#clip0_13_284)">
<path d="M44.5469 56.3594H12.4531C5.66406 56.3594 0.109375 50.8047 0.109375 44.0156V11.9219C0.109375 5.13281 5.66406 -0.421875 12.4531 -0.421875H44.5469C51.3359 -0.421875 56.8906 5.13281 56.8906 11.9219V44.0156C56.8906 50.8047 51.3359 56.3594 44.5469 56.3594Z" fill="url(#paint0_radial_13_284)"/>
<path d="M28.5 10.6875C34.1781 10.6875 34.7953 10.6875 37.0172 10.8109C39.1156 10.9344 40.2266 11.3047 40.9672 11.5516C41.9547 11.9219 42.6953 12.4156 43.4359 13.1562C44.1766 13.8969 44.6703 14.6375 45.0406 15.625C45.2875 16.3656 45.6578 17.4766 45.7812 19.575C45.7812 21.6734 45.7812 22.2906 45.7812 27.9688C45.7812 33.6469 45.7813 34.2641 45.6578 36.4859C45.5344 38.5844 45.1641 39.6953 44.9172 40.4359C44.5469 41.4234 44.0531 42.1641 43.3125 42.9047C42.5719 43.6453 41.8313 44.1391 40.8438 44.5094C40.1031 44.7563 38.9922 45.1266 36.8937 45.25C34.7953 45.25 34.1781 45.25 28.5 45.25C22.8219 45.25 22.2047 45.25 19.9828 45.1266C17.8844 45.0031 16.7734 44.6328 16.0328 44.3859C15.0453 44.0156 14.3047 43.5219 13.5641 42.7812C12.8234 42.0406 12.3297 41.3 11.9594 40.3125C11.7125 39.5719 11.3422 38.4609 11.2188 36.3625C11.2188 34.2641 11.2188 33.6469 11.2188 27.9688C11.2188 22.2906 11.2188 21.6734 11.3422 19.4516C11.4656 17.3531 11.8359 16.2422 12.0828 15.5016C12.4531 14.5141 12.9469 13.7734 13.6875 13.0328C14.4281 12.2922 15.1687 11.7984 16.1562 11.4281C16.8969 11.1813 18.0078 10.8109 20.1063 10.6875C22.2047 10.6875 22.8219 10.6875 28.5 10.6875ZM28.5 6.98438C22.8219 6.98438 22.0812 6.98438 19.8594 7.10781C17.6375 7.23125 16.1562 7.60156 14.7984 8.09531C13.4406 8.58906 12.2062 9.32969 11.0953 10.5641C9.98437 11.7984 9.24375 12.9094 8.62656 14.2672C8.13281 15.625 7.7625 17.1063 7.63906 19.3281C7.51563 21.55 7.51562 22.2906 7.51562 27.9688C7.51562 33.6469 7.51563 34.3875 7.63906 36.6094C7.7625 38.8312 8.13281 40.3125 8.62656 41.6703C9.12031 43.0281 9.86094 44.2625 11.0953 45.3734C12.2062 46.4844 13.4406 47.225 14.7984 47.8422C16.1562 48.3359 17.6375 48.7063 19.8594 48.8297C22.0812 48.9531 22.8219 48.9531 28.5 48.9531C34.1781 48.9531 34.9188 48.9531 37.1406 48.8297C39.3625 48.7063 40.8437 48.3359 42.2016 47.8422C43.5594 47.3484 44.7937 46.6078 45.9047 45.3734C47.0156 44.2625 47.7562 43.0281 48.3734 41.6703C48.8672 40.3125 49.2375 38.8312 49.3609 36.6094C49.4844 34.3875 49.4844 33.6469 49.4844 27.9688C49.4844 22.2906 49.4844 21.55 49.3609 19.3281C49.2375 17.1063 48.8672 15.625 48.3734 14.2672C47.8797 12.9094 47.1391 11.675 45.9047 10.5641C44.6703 9.45312 43.5594 8.7125 42.2016 8.09531C40.8437 7.60156 39.3625 7.23125 37.1406 7.10781C34.9188 6.98438 34.1781 6.98438 28.5 6.98438Z" fill="white"/>
<path d="M39.6094 19.3281C40.9728 19.3281 42.0781 18.2228 42.0781 16.8594C42.0781 15.4959 40.9728 14.3906 39.6094 14.3906C38.2459 14.3906 37.1406 15.4959 37.1406 16.8594C37.1406 18.2228 38.2459 19.3281 39.6094 19.3281Z" fill="white"/>
<path d="M28.5 16.8594C22.3281 16.8594 17.3906 21.7969 17.3906 27.9688C17.3906 34.1406 22.3281 39.0781 28.5 39.0781C34.6719 39.0781 39.6094 34.1406 39.6094 27.9688C39.6094 21.7969 34.6719 16.8594 28.5 16.8594ZM28.5 35.375C24.4266 35.375 21.0938 32.0422 21.0938 27.9688C21.0938 23.8953 24.4266 20.5625 28.5 20.5625C32.5734 20.5625 35.9062 23.8953 35.9062 27.9688C35.9062 32.0422 32.5734 35.375 28.5 35.375Z" fill="white"/>
</g>
<defs>
<radialGradient id="paint0_radial_13_284" cx="0" cy="0" r="1" gradientUnits="userSpaceOnUse" gradientTransform="translate(11.847 67.8336) rotate(-49.945) scale(85.9687 56.7896)">
<stop offset="0.073" stop-color="#EACC7B"/>
<stop offset="0.184" stop-color="#ECAA59"/>
<stop offset="0.307" stop-color="#EF802E"/>
<stop offset="0.358" stop-color="#EF6D3A"/>
<stop offset="0.46" stop-color="#F04B50"/>
<stop offset="0.516" stop-color="#F03E58"/>
<stop offset="0.689" stop-color="#DB359E"/>
<stop offset="0.724" stop-color="#CE37A4"/>
<stop offset="0.789" stop-color="#AC3CB4"/>
<stop offset="0.877" stop-color="#7544CF"/>
<stop offset="0.98" stop-color="#2B4FF2"/>
</radialGradient>
<clipPath id="clip0_13_284">
<rect width="57" height="56" fill="white"/>
</clipPath>
</defs>
</svg>
