<svg viewBox="0 0 84 84" fill="none" xmlns="http://www.w3.org/2000/svg">
<path d="M41.7155 0C18.7738 0 0.0978516 18.6599 0.0895182 41.6016C0.0853516 48.9349 2.00612 56.094 5.64779 62.4023L0 83.3333L21.8018 78.182C27.8809 81.4986 34.7244 83.2396 41.6911 83.2438H41.7074C64.6449 83.2438 83.3127 64.5798 83.3252 41.6423C83.3335 30.5214 79.009 20.0656 71.1507 12.1989C63.2924 4.33639 52.8488 0.00416667 41.7155 0ZM41.7074 8.33333C50.6074 8.3375 58.9713 11.8075 65.2588 18.0908C71.5463 24.3825 75.0002 32.7424 74.9919 41.6341C74.9835 59.9841 60.0575 74.9105 41.6992 74.9105C36.145 74.9063 30.6434 73.5117 25.7975 70.8659L22.9899 69.3359L19.8893 70.0684L11.6862 72.0052L13.6882 64.5671L14.5915 61.2305L12.8662 58.2357C9.95788 53.2023 8.41868 47.4474 8.42285 41.6016C8.43118 23.2599 23.3615 8.33333 41.7074 8.33333ZM26.9857 22.3958C26.2898 22.3958 25.1648 22.6562 24.2106 23.6979C23.2564 24.7354 20.5648 27.2482 20.5648 32.3649C20.5648 37.4816 24.292 42.4275 24.8128 43.1234C25.3295 43.815 32.0073 54.6468 42.5781 58.8135C51.3615 62.276 53.1454 61.5926 55.0537 61.4176C56.962 61.2468 61.2102 58.907 62.0768 56.4779C62.9435 54.0487 62.9455 51.9591 62.6872 51.5299C62.4288 51.0966 61.735 50.8382 60.6934 50.3174C59.6559 49.7965 54.543 47.2859 53.5889 46.9401C52.6347 46.5943 51.9368 46.4193 51.2451 47.4609C50.5534 48.5026 48.5657 50.8383 47.9574 51.5299C47.349 52.2258 46.7448 52.3193 45.7031 51.7985C44.6615 51.2735 41.3122 50.1725 37.3372 46.6309C34.2456 43.8767 32.1594 40.4785 31.5511 39.4368C30.9469 38.3993 31.4941 37.8295 32.015 37.3128C32.4816 36.8462 33.0485 36.0982 33.5693 35.4899C34.086 34.8816 34.2652 34.4482 34.611 33.7565C34.9568 33.0648 34.7798 32.4544 34.5215 31.9336C34.2631 31.4128 32.2401 26.2771 31.3151 24.2187C30.5359 22.4896 29.713 22.4494 28.9714 22.4202C28.3672 22.3952 27.6773 22.3958 26.9857 22.3958Z" fill="white"/>
</svg>
